<mxfile host="www.draw.io" modified="2020-02-27T16:12:27.416Z" agent="Mozilla/5.0 (Windows NT 10.0; Win64; x64) AppleWebKit/537.36 (KHTML, like Gecko) Chrome/80.0.3987.122 Safari/537.36" etag="LhVRlYlJ6GBRSJxa09tr" version="12.7.9" type="github">
  <diagram name="Page-1" id="e7e014a7-5840-1c2e-5031-d8a46d1fe8dd">
    <mxGraphModel dx="1038" dy="499" grid="1" gridSize="10" guides="1" tooltips="1" connect="1" arrows="1" fold="1" page="1" pageScale="1" pageWidth="1169" pageHeight="826" background="#ffffff" math="0" shadow="0">
      <root>
        <mxCell id="0" />
        <mxCell id="1" parent="0" />
        <mxCell id="Q2WFoC5t4WEAiSLcqZBK-41" value="" style="endArrow=none;dashed=1;html=1;fontSize=15;" edge="1" parent="1">
          <mxGeometry width="50" height="50" relative="1" as="geometry">
            <mxPoint x="360" y="480" as="sourcePoint" />
            <mxPoint x="360" y="80" as="targetPoint" />
          </mxGeometry>
        </mxCell>
        <mxCell id="Q2WFoC5t4WEAiSLcqZBK-42" value="" style="endArrow=none;dashed=1;html=1;fontSize=15;" edge="1" parent="1">
          <mxGeometry width="50" height="50" relative="1" as="geometry">
            <mxPoint x="760" y="480" as="sourcePoint" />
            <mxPoint x="760" y="80" as="targetPoint" />
          </mxGeometry>
        </mxCell>
        <mxCell id="Q2WFoC5t4WEAiSLcqZBK-44" value="表现层" style="rounded=0;whiteSpace=wrap;html=1;fillColor=#dae8fc;strokeColor=#6c8ebf;fontSize=15;" vertex="1" parent="1">
          <mxGeometry x="190" y="90" width="160" height="40" as="geometry" />
        </mxCell>
        <mxCell id="Q2WFoC5t4WEAiSLcqZBK-45" value="html页面" style="rounded=0;whiteSpace=wrap;html=1;fillColor=#f5f5f5;strokeColor=#666666;fontColor=#333333;fontSize=15;" vertex="1" parent="1">
          <mxGeometry x="220" y="200" width="100" height="40" as="geometry" />
        </mxCell>
        <mxCell id="Q2WFoC5t4WEAiSLcqZBK-50" value="浏览器" style="rounded=0;whiteSpace=wrap;html=1;fillColor=#1ba1e2;strokeColor=#006EAF;fontColor=#ffffff;fontSize=15;" vertex="1" parent="1">
          <mxGeometry x="180" y="378" width="180" height="40" as="geometry" />
        </mxCell>
        <mxCell id="Q2WFoC5t4WEAiSLcqZBK-51" value="pc端操作系统" style="rounded=0;whiteSpace=wrap;html=1;fontSize=15;" vertex="1" parent="1">
          <mxGeometry x="180" y="418" width="180" height="60" as="geometry" />
        </mxCell>
        <mxCell id="Q2WFoC5t4WEAiSLcqZBK-52" value="WEB应用层" style="rounded=0;whiteSpace=wrap;html=1;fillColor=#f5f5f5;strokeColor=#666666;fontColor=#333333;fontSize=15;" vertex="1" parent="1">
          <mxGeometry x="370" y="91" width="380" height="40" as="geometry" />
        </mxCell>
        <mxCell id="Q2WFoC5t4WEAiSLcqZBK-53" value="控制层" style="rounded=0;whiteSpace=wrap;html=1;fillColor=#f5f5f5;strokeColor=#666666;fontColor=#333333;fontSize=15;" vertex="1" parent="1">
          <mxGeometry x="366" y="160" width="110" height="30" as="geometry" />
        </mxCell>
        <mxCell id="Q2WFoC5t4WEAiSLcqZBK-55" value="业务逻辑层" style="rounded=0;whiteSpace=wrap;html=1;fillColor=#f5f5f5;strokeColor=#666666;fontColor=#333333;fontSize=15;" vertex="1" parent="1">
          <mxGeometry x="486" y="160" width="160" height="30" as="geometry" />
        </mxCell>
        <mxCell id="Q2WFoC5t4WEAiSLcqZBK-56" value="业务逻辑层" style="rounded=0;whiteSpace=wrap;html=1;fillColor=#f5f5f5;strokeColor=#666666;fontColor=#333333;fontSize=15;" vertex="1" parent="1">
          <mxGeometry x="655" y="160" width="95" height="30" as="geometry" />
        </mxCell>
        <mxCell id="Q2WFoC5t4WEAiSLcqZBK-57" value="Controller" style="rounded=0;whiteSpace=wrap;html=1;fillColor=#f5f5f5;strokeColor=#666666;fontColor=#333333;fontSize=15;" vertex="1" parent="1">
          <mxGeometry x="367" y="210" width="120" height="40" as="geometry" />
        </mxCell>
        <mxCell id="Q2WFoC5t4WEAiSLcqZBK-58" value="Service" style="rounded=0;whiteSpace=wrap;html=1;fillColor=#f5f5f5;strokeColor=#666666;fontColor=#333333;fontSize=15;" vertex="1" parent="1">
          <mxGeometry x="479" y="210" width="175" height="40" as="geometry" />
        </mxCell>
        <mxCell id="Q2WFoC5t4WEAiSLcqZBK-59" value="POJO" style="rounded=0;whiteSpace=wrap;html=1;fillColor=#f5f5f5;strokeColor=#666666;fontColor=#333333;fontSize=15;" vertex="1" parent="1">
          <mxGeometry x="649" y="210" width="100" height="40" as="geometry" />
        </mxCell>
        <mxCell id="Q2WFoC5t4WEAiSLcqZBK-61" value="WEB应用层" style="rounded=0;whiteSpace=wrap;html=1;fillColor=#1ba1e2;strokeColor=#006EAF;fontColor=#ffffff;fontSize=15;" vertex="1" parent="1">
          <mxGeometry x="360" y="378" width="400" height="40" as="geometry" />
        </mxCell>
        <mxCell id="Q2WFoC5t4WEAiSLcqZBK-62" value="JavaEE，WEB应用服务器" style="rounded=0;whiteSpace=wrap;html=1;fontSize=15;" vertex="1" parent="1">
          <mxGeometry x="360" y="418" width="400" height="60" as="geometry" />
        </mxCell>
        <mxCell id="Q2WFoC5t4WEAiSLcqZBK-63" value="数据层" style="rounded=0;whiteSpace=wrap;html=1;fillColor=#dae8fc;strokeColor=#6c8ebf;fontSize=15;" vertex="1" parent="1">
          <mxGeometry x="771" y="90" width="250" height="40" as="geometry" />
        </mxCell>
        <mxCell id="Q2WFoC5t4WEAiSLcqZBK-64" value="数据访问" style="rounded=0;whiteSpace=wrap;html=1;fillColor=#dae8fc;strokeColor=#6c8ebf;fontSize=15;" vertex="1" parent="1">
          <mxGeometry x="771" y="140" width="109" height="40" as="geometry" />
        </mxCell>
        <mxCell id="Q2WFoC5t4WEAiSLcqZBK-65" value="数据储存" style="rounded=0;whiteSpace=wrap;html=1;fillColor=#dae8fc;strokeColor=#6c8ebf;fontSize=15;" vertex="1" parent="1">
          <mxGeometry x="912" y="140" width="109" height="40" as="geometry" />
        </mxCell>
        <mxCell id="Q2WFoC5t4WEAiSLcqZBK-66" value="&lt;b style=&quot;font-size: 15px;&quot;&gt;&lt;font style=&quot;font-size: 15px;&quot;&gt;mybatis&lt;/font&gt;&lt;/b&gt;" style="rounded=1;whiteSpace=wrap;html=1;fillColor=#f5f5f5;strokeColor=#666666;fontSize=15;fontColor=#333333;" vertex="1" parent="1">
          <mxGeometry x="778" y="190" width="240" height="40" as="geometry" />
        </mxCell>
        <mxCell id="Q2WFoC5t4WEAiSLcqZBK-67" value="访问接口&lt;br&gt;DAO" style="rounded=1;whiteSpace=wrap;html=1;fillColor=#f5f5f5;strokeColor=#666666;arcSize=49;fontSize=13;fontColor=#333333;" vertex="1" parent="1">
          <mxGeometry x="771" y="237" width="97" height="50" as="geometry" />
        </mxCell>
        <mxCell id="Q2WFoC5t4WEAiSLcqZBK-68" value="SQL&lt;br&gt;Mapper" style="rounded=1;whiteSpace=wrap;html=1;fillColor=#f5f5f5;strokeColor=#666666;arcSize=49;fontSize=13;fontColor=#333333;" vertex="1" parent="1">
          <mxGeometry x="773" y="320" width="97" height="50" as="geometry" />
        </mxCell>
        <mxCell id="Q2WFoC5t4WEAiSLcqZBK-69" value="" style="shape=flexArrow;endArrow=classic;startArrow=classic;html=1;fontSize=13;exitX=1;exitY=0.5;exitDx=0;exitDy=0;fillColor=#dae8fc;strokeColor=#6c8ebf;" edge="1" parent="1" source="Q2WFoC5t4WEAiSLcqZBK-68" target="Q2WFoC5t4WEAiSLcqZBK-70">
          <mxGeometry width="50" height="50" relative="1" as="geometry">
            <mxPoint x="690" y="280" as="sourcePoint" />
            <mxPoint x="960" y="350" as="targetPoint" />
          </mxGeometry>
        </mxCell>
        <mxCell id="Q2WFoC5t4WEAiSLcqZBK-70" value="数据库" style="shape=cylinder;whiteSpace=wrap;html=1;boundedLbl=1;backgroundOutline=1;fillColor=#f5f5f5;strokeColor=#666666;fontColor=#333333;" vertex="1" parent="1">
          <mxGeometry x="958" y="317.5" width="60" height="52.5" as="geometry" />
        </mxCell>
        <mxCell id="Q2WFoC5t4WEAiSLcqZBK-71" value="数据库层架构" style="rounded=0;whiteSpace=wrap;html=1;fillColor=#1ba1e2;strokeColor=#006EAF;fontColor=#ffffff;fontSize=15;" vertex="1" parent="1">
          <mxGeometry x="760" y="378" width="260" height="40" as="geometry" />
        </mxCell>
        <mxCell id="Q2WFoC5t4WEAiSLcqZBK-72" value="MYSQL数据库" style="rounded=0;whiteSpace=wrap;html=1;fontSize=15;" vertex="1" parent="1">
          <mxGeometry x="760" y="418" width="260" height="60" as="geometry" />
        </mxCell>
        <mxCell id="Q2WFoC5t4WEAiSLcqZBK-75" value="" style="endArrow=none;dashed=1;html=1;fontSize=13;entryX=0.293;entryY=1.05;entryDx=0;entryDy=0;entryPerimeter=0;" edge="1" parent="1" target="Q2WFoC5t4WEAiSLcqZBK-52">
          <mxGeometry width="50" height="50" relative="1" as="geometry">
            <mxPoint x="481" y="370" as="sourcePoint" />
            <mxPoint x="481" y="150" as="targetPoint" />
          </mxGeometry>
        </mxCell>
        <mxCell id="Q2WFoC5t4WEAiSLcqZBK-76" value="" style="endArrow=none;dashed=1;html=1;fontSize=13;" edge="1" parent="1">
          <mxGeometry width="50" height="50" relative="1" as="geometry">
            <mxPoint x="650" y="370" as="sourcePoint" />
            <mxPoint x="650" y="140" as="targetPoint" />
          </mxGeometry>
        </mxCell>
        <mxCell id="Q2WFoC5t4WEAiSLcqZBK-77" value="学生控制器" style="rounded=1;whiteSpace=wrap;html=1;fillColor=#f5f5f5;strokeColor=#666666;arcSize=29;fontSize=13;fontColor=#333333;" vertex="1" parent="1">
          <mxGeometry x="372" y="255" width="78" height="35" as="geometry" />
        </mxCell>
        <mxCell id="Q2WFoC5t4WEAiSLcqZBK-81" value="学校控制器" style="rounded=1;whiteSpace=wrap;html=1;fillColor=#f5f5f5;strokeColor=#666666;arcSize=29;fontSize=13;fontColor=#333333;" vertex="1" parent="1">
          <mxGeometry x="372.5" y="300" width="77.5" height="35" as="geometry" />
        </mxCell>
        <mxCell id="Q2WFoC5t4WEAiSLcqZBK-82" value="商家控制器" style="rounded=1;whiteSpace=wrap;html=1;fillColor=#f5f5f5;strokeColor=#666666;arcSize=29;fontSize=13;fontColor=#333333;" vertex="1" parent="1">
          <mxGeometry x="372.5" y="340" width="77.5" height="35" as="geometry" />
        </mxCell>
        <mxCell id="Q2WFoC5t4WEAiSLcqZBK-85" value="" style="shape=flexArrow;endArrow=classic;startArrow=classic;html=1;fontSize=13;width=6;startSize=3.91;entryX=0.5;entryY=1;entryDx=0;entryDy=0;exitX=0.5;exitY=0;exitDx=0;exitDy=0;fillColor=#dae8fc;strokeColor=#6c8ebf;" edge="1" parent="1" source="Q2WFoC5t4WEAiSLcqZBK-68" target="Q2WFoC5t4WEAiSLcqZBK-67">
          <mxGeometry width="50" height="50" relative="1" as="geometry">
            <mxPoint x="640" y="280" as="sourcePoint" />
            <mxPoint x="690" y="230" as="targetPoint" />
          </mxGeometry>
        </mxCell>
        <mxCell id="Q2WFoC5t4WEAiSLcqZBK-86" value="商品服务类" style="rounded=1;whiteSpace=wrap;html=1;fillColor=#f5f5f5;strokeColor=#666666;arcSize=29;fontSize=13;fontColor=#333333;" vertex="1" parent="1">
          <mxGeometry x="483" y="256.5" width="80" height="28" as="geometry" />
        </mxCell>
        <mxCell id="Q2WFoC5t4WEAiSLcqZBK-87" value="订单服务类" style="rounded=1;whiteSpace=wrap;html=1;fillColor=#f5f5f5;strokeColor=#666666;arcSize=29;fontSize=13;fontColor=#333333;" vertex="1" parent="1">
          <mxGeometry x="567" y="256.5" width="80" height="28" as="geometry" />
        </mxCell>
        <mxCell id="Q2WFoC5t4WEAiSLcqZBK-88" value="团队服务类" style="rounded=1;whiteSpace=wrap;html=1;fillColor=#f5f5f5;strokeColor=#666666;arcSize=29;fontSize=13;fontColor=#333333;" vertex="1" parent="1">
          <mxGeometry x="483" y="300" width="80" height="28" as="geometry" />
        </mxCell>
        <mxCell id="Q2WFoC5t4WEAiSLcqZBK-89" value="信息服务类" style="rounded=1;whiteSpace=wrap;html=1;fillColor=#f5f5f5;strokeColor=#666666;arcSize=29;fontSize=13;fontColor=#333333;" vertex="1" parent="1">
          <mxGeometry x="566" y="300" width="80" height="28" as="geometry" />
        </mxCell>
        <mxCell id="Q2WFoC5t4WEAiSLcqZBK-90" value="支付服务类" style="rounded=1;whiteSpace=wrap;html=1;fillColor=#f5f5f5;strokeColor=#666666;arcSize=29;fontSize=13;fontColor=#333333;" vertex="1" parent="1">
          <mxGeometry x="483" y="339" width="80" height="28" as="geometry" />
        </mxCell>
        <mxCell id="Q2WFoC5t4WEAiSLcqZBK-91" value="商品类" style="rounded=1;whiteSpace=wrap;html=1;fillColor=#f5f5f5;strokeColor=#666666;arcSize=29;fontSize=13;fontColor=#333333;" vertex="1" parent="1">
          <mxGeometry x="669.5" y="256.5" width="57.5" height="28" as="geometry" />
        </mxCell>
        <mxCell id="Q2WFoC5t4WEAiSLcqZBK-92" value="学生类" style="rounded=1;whiteSpace=wrap;html=1;fillColor=#f5f5f5;strokeColor=#666666;arcSize=29;fontSize=13;fontColor=#333333;" vertex="1" parent="1">
          <mxGeometry x="669.5" y="300" width="57.5" height="28" as="geometry" />
        </mxCell>
        <mxCell id="Q2WFoC5t4WEAiSLcqZBK-93" value="订单类" style="rounded=1;whiteSpace=wrap;html=1;fillColor=#f5f5f5;strokeColor=#666666;arcSize=29;fontSize=13;fontColor=#333333;" vertex="1" parent="1">
          <mxGeometry x="669.5" y="335" width="57.5" height="28" as="geometry" />
        </mxCell>
        <mxCell id="Q2WFoC5t4WEAiSLcqZBK-94" value="系统服务类" style="rounded=1;whiteSpace=wrap;html=1;fillColor=#f5f5f5;strokeColor=#666666;arcSize=29;fontSize=13;fontColor=#333333;" vertex="1" parent="1">
          <mxGeometry x="566" y="339" width="80" height="28" as="geometry" />
        </mxCell>
      </root>
    </mxGraphModel>
  </diagram>
</mxfile>
